<svg width="193" height="157" viewBox="0 0 193 157" fill="none" xmlns="http://www.w3.org/2000/svg">
<g opacity="0.24" clip-path="url(#clip0_927_886)">
<rect width="193" height="193" transform="matrix(-0.99132 -0.131473 -0.131473 0.99132 216.699 25.3743)" fill="#1D1D1D"/>
<path d="M21.3815 61.4596C20.3949 68.8983 21.589 76.6886 24.979 84.8323C28.3517 92.9893 33.0363 99.3577 39.0287 103.968C45.0231 108.564 50.374 109.912 55.0823 107.998C59.8081 106.07 62.6566 101.386 63.6431 93.9474C64.0491 90.8862 64.0898 87.761 63.7478 84.585C63.2763 80.0368 62.0436 75.3563 60.0476 70.5592C58.3357 66.4384 56.2988 62.773 53.9187 59.5759C51.6096 56.435 48.9641 53.7167 45.9955 51.4384C40.4563 47.1682 35.463 45.7115 31.0194 47.0379L29.9422 47.4092C25.2165 49.3368 22.3701 54.0056 21.3815 61.4596Z" stroke="#E46E00" stroke-width="2.14444" stroke-linecap="round" stroke-linejoin="round"/>
<path d="M77.7337 104.788L107.165 175.649L118.671 170.742L103.526 134.266L138.439 161.091L140.981 163.063L141.69 163.593L161.124 178.537L163.446 161.027L146.556 148.04L126.669 132.756L105.848 116.756L117.932 111.723L127 107.942L119.497 89.8295L118.776 88.0985L77.7337 104.788Z" stroke="#E46E00" stroke-width="2.14444" stroke-linecap="round" stroke-linejoin="round"/>
<path d="M118.777 88.0985L119.498 89.8295L127.001 107.942L159.643 96.6957L151.419 76.8524L118.777 88.0985Z" stroke="#E46E00" stroke-width="2.14444" stroke-linecap="round" stroke-linejoin="round"/>
<path d="M105.849 116.756L118.237 112.48L138.491 105.51L159.643 96.6957L127.001 107.942L117.933 111.723L105.849 116.756Z" stroke="#E46E00" stroke-width="3.088" stroke-linecap="round" stroke-linejoin="round"/>
<path d="M105.85 116.756L126.67 132.756L146.557 148.04L163.447 161.027L196.089 149.781L138.492 105.509L118.238 112.48L105.85 116.756Z" stroke="#E46E00" stroke-width="2.14444" stroke-linecap="round" stroke-linejoin="round"/>
<path d="M163.447 161.027L161.125 178.537L193.767 167.291L196.089 149.781L163.447 161.027Z" stroke="#E46E00" stroke-width="2.14444" stroke-linecap="round" stroke-linejoin="round"/>
<path d="M103.527 134.266L118.672 170.742L139.465 163.578L140.982 163.063L138.44 161.091L103.527 134.266Z" stroke="#E46E00" stroke-width="2.14444" stroke-linecap="round" stroke-linejoin="round"/>
<path d="M31.0203 47.0381C35.4638 45.7117 40.4572 47.1683 45.9963 51.4385C48.965 53.7168 51.6105 56.4351 53.9196 59.576C56.2997 62.7731 58.3366 66.4386 60.0485 70.5594C62.0445 75.3565 63.2772 80.0368 63.7487 84.585C64.0907 87.761 64.05 90.8862 63.644 93.9474C62.6574 101.386 59.809 106.07 55.0832 107.998L86.5827 97.1454L87.7251 96.7518C92.4509 94.8242 95.2993 90.14 96.2859 82.7013C97.2724 75.2626 96.0784 67.4724 92.6904 59.3134C89.3157 51.1716 84.6312 44.8032 78.6388 40.1925C72.6464 35.5819 67.2937 34.2489 62.5853 36.1632L31.0203 47.0381Z" stroke="#E46E00" stroke-width="2.14444" stroke-linecap="round" stroke-linejoin="round"/>
</g>
<defs>
<clipPath id="clip0_927_886">
<rect width="193" height="193" fill="white" transform="matrix(-0.99132 -0.131473 -0.131473 0.99132 216.699 25.3743)"/>
</clipPath>
</defs>
</svg>
