<svg width="132" height="132" viewBox="0 0 132 132" fill="none" xmlns="http://www.w3.org/2000/svg">
<rect width="132" height="132" rx="7.13514" fill="white"/>
<path d="M14.2705 105.243V92.757H39.2435V117.73H14.2705V105.243ZM35.6759 105.243V96.3246H17.8381V114.162H35.6759V105.243ZM21.4056 105.243V99.8921H32.1083V110.595H21.4056V105.243ZM46.3786 115.946V114.162H42.811V107.027H46.3786V96.3246H49.9462V92.757H42.811V89.1894H28.5408V85.6219H32.1083V82.0543H24.9732V89.1894H21.4056V85.6219H14.2705V82.0543H21.4056V74.9192H17.8381V78.4867H14.2705V71.3516H21.4056V74.9192H24.9732V78.4867H28.5408V74.9192H32.1083V78.4867H39.2435V74.9192H35.6759V71.3516H24.9732V67.784H35.6759V64.2165H24.9732V60.6489H21.4056V64.2165H14.2705V53.5138H17.8381V57.0813H39.2435V53.5138H35.6759V49.9462H28.5408V53.5138H24.9732V49.9462H17.8381V42.811H24.9732V49.9462H28.5408V46.3786H35.6759V42.811H39.2435V46.3786H35.6759V49.9462H39.2435V53.5138H42.811V46.3786H46.3786V42.811H42.811V32.1083H49.9462V35.6759H53.5138V39.2435H49.9462V42.811H53.5138V64.2165H46.3786V60.6489H42.811V64.2165H39.2435V67.784H35.6759V71.3516H39.2435V74.9192H42.811V78.4867H49.9462V74.9192H46.3786V71.3516H42.811V67.784H49.9462V74.9192H53.5138V67.784H57.0813V74.9192H60.6489V64.2165H64.2165V60.6489H67.784V64.2165H64.2165V67.784H67.784V71.3516H78.4867V67.784H74.9192V64.2165H71.3516V57.0813H67.784V53.5138H71.3516V49.9462H74.9192V46.3786H71.3516V42.811H67.784V49.9462H64.2165V46.3786H60.6489V49.9462H57.0813V46.3786H60.6489V42.811H57.0813V32.1083H53.5138V28.5408H57.0813V32.1083H60.6489V17.8381H64.2165V24.9732H71.3516V21.4056H67.784V14.2705H74.9192V17.8381H71.3516V21.4056H78.4867V17.8381H82.0543V14.2705H89.1894V24.9732H82.0543V21.4056H78.4867V28.5408H82.0543V39.2435H85.6219V35.6759H89.1894V53.5138H96.3246V49.9462H92.757V42.811H99.8921V53.5138H107.027V49.9462H103.46V42.811H107.027V49.9462H110.595V46.3786H117.73V53.5138H114.162V49.9462H110.595V53.5138H107.027V64.2165H110.595V67.784H107.027V71.3516H99.8921V74.9192H96.3246V78.4867H89.1894V74.9192H85.6219V71.3516H82.0543V78.4867H85.6219V82.0543H96.3246V85.6219H103.46V82.0543H99.8921V78.4867H103.46V74.9192H107.027V78.4867H110.595V82.0543H114.162V74.9192H110.595V71.3516H117.73V82.0543H114.162V89.1894H117.73V96.3246H114.162V107.027H117.73V110.595H107.027V117.73H96.3246V114.162H103.46V110.595H96.3246V103.46H92.757V110.595H89.1894V114.162H92.757V117.73H85.6219V107.027H82.0543V114.162H78.4867V110.595H74.9192V96.3246H78.4867V107.027H82.0543V96.3246H85.6219V89.1894H82.0543V85.6219H78.4867V82.0543H82.0543V78.4867H78.4867V74.9192H74.9192V89.1894H78.4867V92.757H71.3516V99.8921H67.784V107.027H71.3516V110.595H67.784V114.162H74.9192V117.73H67.784V114.162H64.2165V110.595H60.6489V117.73H46.3786V115.946ZM57.0813 110.595V107.027H60.6489V96.3246H53.5138V99.8921H57.0813V103.46H49.9462V107.027H46.3786V110.595H49.9462V114.162H57.0813V110.595ZM107.027 107.027V103.46H110.595V96.3246H114.162V92.757H110.595V82.0543H107.027V92.757H110.595V96.3246H107.027V99.8921H103.46V110.595H107.027V107.027ZM89.1894 105.243V103.46H85.6219V107.027H89.1894V105.243ZM67.784 98.1083V96.3246H64.2165V99.8921H67.784V98.1083ZM99.8921 94.5408V89.1894H89.1894V99.8921H99.8921V94.5408ZM92.757 94.5408V92.757H96.3246V96.3246H92.757V94.5408ZM64.2165 90.9732V89.1894H71.3516V85.6219H64.2165V82.0543H60.6489V85.6219H64.2165V89.1894H57.0813V85.6219H53.5138V89.1894H49.9462V85.6219H46.3786V82.0543H42.811V78.4867H39.2435V82.0543H35.6759V85.6219H39.2435V82.0543H42.811V85.6219H46.3786V89.1894H49.9462V92.757H64.2165V90.9732ZM53.5138 80.2705V78.4867H49.9462V82.0543H53.5138V80.2705ZM71.3516 78.4867V74.9192H64.2165V78.4867H67.784V82.0543H71.3516V78.4867ZM92.757 73.1354V71.3516H89.1894V74.9192H92.757V73.1354ZM99.8921 69.5678V67.784H103.46V57.0813H99.8921V60.6489H96.3246V64.2165H92.757V60.6489H85.6219V57.0813H82.0543V53.5138H85.6219V42.811H82.0543V39.2435H78.4867V35.6759H74.9192V39.2435H71.3516V28.5408H74.9192V32.1083H78.4867V28.5408H74.9192V24.9732H71.3516V28.5408H67.784V39.2435H71.3516V42.811H74.9192V39.2435H78.4867V49.9462H74.9192V53.5138H71.3516V57.0813H74.9192V64.2165H78.4867V60.6489H85.6219V64.2165H89.1894V67.784H96.3246V71.3516H99.8921V69.5678ZM96.3246 66.0002V64.2165H99.8921V67.784H96.3246V66.0002ZM39.2435 62.4327V60.6489H42.811V57.0813H39.2435V60.6489H35.6759V64.2165H39.2435V62.4327ZM49.9462 55.2975V53.5138H46.3786V57.0813H49.9462V55.2975ZM49.9462 37.4597V35.6759H46.3786V39.2435H49.9462V37.4597ZM64.2165 35.6759V32.1083H60.6489V39.2435H64.2165V35.6759ZM85.6219 19.6219V17.8381H82.0543V21.4056H85.6219V19.6219ZM114.162 115.946V114.162H117.73V117.73H114.162V115.946ZM114.162 64.2165V60.6489H110.595V57.0813H114.162V60.6489H117.73V67.784H114.162V64.2165ZM14.2705 26.757V14.2705H39.2435V39.2435H14.2705V26.757ZM35.6759 26.757V17.8381H17.8381V35.6759H35.6759V26.757ZM21.4056 26.757V21.4056H32.1083V32.1083H21.4056V26.757ZM92.757 26.757V14.2705H117.73V39.2435H92.757V26.757ZM114.162 26.757V17.8381H96.3246V35.6759H114.162V26.757ZM99.8921 26.757V21.4056H110.595V32.1083H99.8921V26.757ZM42.811 26.757V24.9732H46.3786V28.5408H42.811V26.757ZM49.9462 23.1894V21.4056H46.3786V14.2705H49.9462V17.8381H53.5138V14.2705H57.0813V17.8381H53.5138V24.9732H49.9462V23.1894Z" fill="black"/>
</svg>
