<svg width="170" height="153" viewBox="0 0 170 153" fill="none" xmlns="http://www.w3.org/2000/svg">
<g opacity="0.24" clip-path="url(#clip0_927_876)">
<path d="M133.781 119.295C137.224 113.47 140.067 107.298 142.309 100.795C144.531 94.3098 145.892 87.8866 146.352 81.5587C147.491 65.8813 143.529 54.9971 134.447 48.9226L132.186 47.579C126.233 44.4123 119.255 43.7979 111.251 45.7534C107.54 46.663 103.627 48.1297 99.479 50.1332C97.6265 51.035 95.8234 51.9939 94.0317 53.043C89.9274 55.425 85.9726 58.2109 82.1848 61.4022C82.1098 61.4503 82.0334 61.5162 81.9571 61.5822C74.7805 67.6362 68.1824 75.0725 62.1425 83.9252C60.761 85.969 59.4506 88.018 58.2303 90.0557C55.3878 94.7452 52.9923 99.4313 51.0424 104.132C50.9367 104.357 50.8501 104.565 50.7622 104.791C47.5258 112.686 45.4869 120.578 44.6631 128.47C44.5858 129.287 44.5086 130.103 44.4505 130.903C44.0293 136.697 44.3148 141.864 45.2932 146.349C46.9534 153.993 50.6462 159.729 56.354 163.557C65.4352 169.649 77.0795 169.245 91.3221 162.346C97.0636 159.565 102.564 155.926 107.803 151.447C112.49 147.445 116.737 143.091 120.563 138.401C121.016 137.826 121.467 137.27 121.92 136.695L134.306 145.011L167.343 167.157L179.204 149.758L133.781 119.295ZM122.763 114.527C121.464 116.899 120.005 119.277 118.386 121.643C115.885 125.321 113.248 128.649 110.459 131.627C105.032 137.451 99.0589 141.948 92.5767 145.087C82.7797 149.825 74.7379 150.08 68.416 145.85C65.8431 144.126 63.8641 141.856 62.4963 139.04C60.4989 135.053 59.7066 129.975 60.1181 123.822C60.112 123.661 60.1247 123.483 60.1363 123.323C60.4128 119.519 61.1008 115.71 62.2014 111.876C62.2957 111.562 62.3901 111.247 62.4844 110.932C63.9609 106.107 66.1001 101.26 68.9009 96.4064C69.9826 94.5552 71.1543 92.6927 72.4163 90.8189C79.035 81.1326 86.5853 73.8728 95.0834 69.0584C95.532 68.7873 95.9791 68.5339 96.4429 68.2996C97.0197 67.9841 97.631 67.689 98.2244 67.3927C103.243 64.9699 107.8 63.7288 111.88 63.6501C115.8 63.5598 119.301 64.5647 122.385 66.6294C128.689 70.858 131.449 78.3669 130.664 89.1563C130.052 97.5816 127.417 106.056 122.763 114.527Z" stroke="#E46E00" stroke-width="2" stroke-linecap="round" stroke-linejoin="round"/>
<path d="M89.6431 128.184L81.6103 123.401L70.441 116.782L62.2027 111.876C62.297 111.562 62.3914 111.247 62.4858 110.932L71.205 116.105L72.1464 116.673L81.9015 123.083L89.6431 128.184Z" stroke="#E46E00" stroke-width="2" stroke-linecap="round" stroke-linejoin="round"/>
<path d="M81.0468 103.615L74.9458 112.57L72.146 116.673L71.2045 116.104L62.4853 110.932C63.9617 106.107 66.101 101.26 68.9018 96.4064L81.0468 103.615Z" stroke="#E46E00" stroke-width="2" stroke-linecap="round" stroke-linejoin="round"/>
<path d="M119.502 84.1639L106.373 103.526L94.546 120.947L89.6421 128.184L81.9005 123.083L72.1454 116.674L74.9453 112.571L81.0463 103.615L82.0181 104.258L90.7745 110.148L103.516 91.4538L111.938 79.0754L119.502 84.1639Z" stroke="#E46E00" stroke-width="2" stroke-linecap="round" stroke-linejoin="round"/>
<path d="M111.94 79.0757L103.517 91.4541L90.7757 110.148L82.0193 104.258L81.0475 103.615L68.9025 96.4071C69.9841 94.5558 71.1559 92.6933 72.4178 90.8195C79.0365 81.1333 86.5866 73.8734 95.0848 69.059L96.3181 69.792L109.028 77.3452L111.94 79.0757Z" stroke="#E46E00" stroke-width="2" stroke-linecap="round" stroke-linejoin="round"/>
<path d="M167.346 167.158L133.088 146.799L120.565 138.401C121.018 137.827 121.469 137.27 121.922 136.695L134.308 145.011L167.346 167.158Z" stroke="#E46E00" stroke-width="2" stroke-linecap="round" stroke-linejoin="round"/>
<path d="M132.186 47.5788C126.233 44.4122 119.255 43.7978 111.251 45.7533C107.539 46.6629 103.627 48.1296 99.4787 50.1331C97.6263 51.0349 95.8231 51.9938 94.0315 53.0429C89.9272 55.4249 85.9724 58.2108 82.1845 61.4021C82.1096 61.4502 82.0331 61.5161 81.9568 61.5821C74.7802 67.6361 68.1822 75.0724 62.1423 83.9251C60.7608 85.9689 59.4503 88.0179 58.2301 90.0556C55.3876 94.745 52.992 99.431 51.0421 104.132C50.9365 104.356 50.8499 104.565 50.762 104.791C47.5256 112.686 45.4866 120.578 44.6628 128.47C44.5856 129.286 44.5084 130.103 44.4503 130.903C44.029 136.697 44.3146 141.864 45.293 146.349C46.9532 153.992 50.646 159.729 56.3538 163.557L24.3571 144.541L22.0961 143.198C13.0314 137.124 9.05174 126.239 10.1926 110.543C11.3335 94.8483 17.241 79.2138 27.8846 63.5661C38.5447 47.9374 50.9785 36.6726 65.221 29.774C79.4636 22.8756 91.1253 22.4725 100.189 28.5634L132.186 47.5788Z" stroke="#E46E00" stroke-width="2" stroke-linecap="round" stroke-linejoin="round"/>
<path d="M130.667 89.156C130.054 97.5813 127.419 106.056 122.765 114.527C121.467 116.899 120.007 119.276 118.388 121.642C115.887 125.32 113.251 128.649 110.461 131.627C105.034 137.45 99.061 141.948 92.5788 145.086C82.7818 149.824 74.7401 150.079 68.4183 145.85C65.8454 144.126 63.8662 141.856 62.4984 139.04C60.501 135.053 59.7087 129.974 60.1202 123.822C63.7274 121.886 67.1663 119.563 70.4419 116.781L81.6112 123.4L89.644 128.184L94.548 120.946L106.375 103.526L119.504 84.1633L111.94 79.0748L109.028 77.3442L96.3188 69.791C96.3611 69.4546 96.3844 69.1347 96.4089 68.7969L96.4451 68.2992C97.0219 67.9838 97.6331 67.6887 98.2264 67.3923C103.245 64.9696 107.802 63.7284 111.882 63.6498C115.802 63.5594 119.303 64.5644 122.387 66.6291C128.691 70.8577 131.451 78.3666 130.667 89.156Z" stroke="#E46E00" stroke-width="2" stroke-linecap="round" stroke-linejoin="round"/>
</g>
<defs>
<clipPath id="clip0_927_876">
<rect width="180" height="180" fill="white" transform="translate(13.9805 0.92981) rotate(4.15757)"/>
</clipPath>
</defs>
</svg>
